<svg width="26" height="26" viewBox="0 0 26 26" fill="none" xmlns="http://www.w3.org/2000/svg">
<rect x="18" y="19" width="11" height="12" transform="rotate(180 18 19)" fill="black"/>
<path d="M4.875 26L21.125 26C23.818 26 26 23.818 26 21.125L26 4.875C26 2.182 23.818 0 21.125 0L4.875 0C2.182 0 0 2.182 0 4.875L0 21.125C0 23.818 2.182 26 4.875 26ZM7 8C7 7.449 7.449 7 8 7L10 7C10.551 7 11 7.449 11 8L11 11.618L16.569 7.193C16.708 7.125 16.858 7.089 17.008 7.089C17.187 7.089 17.364 7.138 17.52 7.233C17.81 7.407 18 7.718 18 8.05L18 17.949C18 18.283 17.81 18.593 17.521 18.766C17.233 18.941 16.872 18.957 16.569 18.805L11 14.382L11 18C11 18.551 10.551 19 10 19L8 19C7.449 19 7 18.551 7 18L7 8Z" fill="white"/>
</svg>
