<svg width="26" height="26" viewBox="0 0 26 26" fill="none" xmlns="http://www.w3.org/2000/svg">
<rect width="26" height="26" fill="white"/>
<rect x="8" y="7" width="11" height="12" fill="black"/>
<path d="M21.125 0H4.875C2.182 0 0 2.182 0 4.875V21.125C0 23.818 2.182 26 4.875 26H21.125C23.818 26 26 23.818 26 21.125V4.875C26 2.182 23.818 0 21.125 0ZM19 18C19 18.551 18.551 19 18 19H16C15.449 19 15 18.551 15 18V14.382L9.431 18.807C9.292 18.875 9.142 18.911 8.992 18.911C8.813 18.911 8.636 18.862 8.48 18.767C8.19 18.593 8 18.282 8 17.95V8.051C8 7.717 8.19 7.407 8.479 7.234C8.767 7.059 9.128 7.043 9.431 7.195L15 11.618V8C15 7.449 15.449 7 16 7H18C18.551 7 19 7.449 19 8V18Z" fill="white"/>
</svg>
