<svg width="10" height="15" viewBox="0 0 10 15" fill="none" xmlns="http://www.w3.org/2000/svg">
<path d="M3.06318 0H0.883578C0.395675 0 0 0.395675 0 0.883578V14.1164C0 14.6043 0.395675 15 0.883578 15H3.06318C3.55109 15 3.94676 14.6043 3.94676 14.1164V0.883578C3.94679 0.395675 3.55112 0 3.06318 0Z" fill="black"/>
<path d="M9.07148 0H6.89188C6.404 0 6.0083 0.395675 6.0083 0.883578V14.1164C6.0083 14.6043 6.40398 15 6.89188 15H9.07148C9.55936 15 9.95506 14.6043 9.95506 14.1164V0.883578C9.95506 0.395675 9.55939 0 9.07148 0Z" fill="black"/>
</svg>
