<svg width="20" height="15" viewBox="0 0 20 15" fill="none" xmlns="http://www.w3.org/2000/svg">
<path d="M15.9172 7.00144C15.7763 6.8274 15.521 6.80051 15.347 6.94138L15.206 7.05552C15.032 7.19639 15.0051 7.45167 15.146 7.62567C15.2261 7.72464 15.3432 7.77601 15.4613 7.77601C15.5509 7.77601 15.6411 7.74645 15.7162 7.68569L15.8572 7.57155C16.0311 7.43068 16.058 7.17544 15.9172 7.00144Z" fill="#E0E6E9"/>
<path d="M14.7568 7.94065C14.616 7.76661 14.3606 7.73973 14.1867 7.88056L11.2882 10.1957C11.1142 10.3366 11.0874 10.5918 11.2283 10.7658C11.3083 10.8648 11.4254 10.9162 11.5436 10.9162C11.6331 10.9162 11.7234 10.8866 11.7984 10.8259L14.6968 8.51073C14.8708 8.3699 14.8977 8.1147 14.7568 7.94065Z" fill="#E0E6E9"/>
<path d="M17.4485 0H2.4154C1.08355 0 0 1.08355 0 2.41536V12.5846C0 13.9165 1.08355 15 2.4154 15H17.4485C18.7804 15 19.8639 13.9165 19.8639 12.5846V2.41536C19.8639 1.08355 18.7804 0 17.4485 0ZM16.2912 0.810734L9.92648 5.95548L3.56177 0.810734H16.2912ZM16.6099 14.1892H3.24309V4.72144L9.67217 9.90041C9.8206 10.02 10.0324 10.02 10.1808 9.90041L16.6098 4.72144V14.1892H16.6099ZM19.0531 12.5846C19.0531 13.4694 18.3333 14.1892 17.4485 14.1892H17.4207V3.87431C17.4207 3.71824 17.3311 3.57605 17.1903 3.50866C17.0494 3.44123 16.8825 3.46074 16.761 3.55863L9.92648 9.06419L3.09198 3.55863C2.97039 3.46074 2.80341 3.44123 2.66269 3.50866C2.52186 3.57605 2.43228 3.71824 2.43228 3.87431V14.1892H2.41536C1.53061 14.1892 0.810773 13.4694 0.810773 12.5846V2.41536C0.810773 1.57635 1.45821 0.886077 2.27965 0.816942L9.67166 6.7921C9.74596 6.85219 9.83624 6.88222 9.92648 6.88222C10.0168 6.88222 10.107 6.85219 10.1813 6.7921L17.5742 0.816127C18.4004 0.880529 19.0531 1.57293 19.0531 2.41533V12.5846Z" fill="#E0E6E9"/>
</svg>
