<svg width="31" height="30" viewBox="0 0 31 30" fill="none" xmlns="http://www.w3.org/2000/svg">
<path d="M30.8281 12.1692C25.8407 22.8 24.218 22.8 23.2498 22.8H13.7114C10.3706 22.8 7.81074 20.8224 7.18956 17.76C7.17048 17.6664 5.28188 8.3364 4.799 5.73C4.56173 4.452 3.95843 3.6 1.78845 3.6C0.800032 3.6 0 2.7948 0 1.8C0 0.8052 0.800032 0 1.78845 0C5.38919 0 7.70701 1.8 8.31509 5.0688C8.7932 7.6476 10.6758 16.9464 10.6949 17.0412C11.0753 18.9204 12.748 19.2012 13.7114 19.2012H22.7788C23.753 18.1476 25.973 14.088 27.5933 10.632C28.0154 9.7332 29.0825 9.3504 29.9744 9.7728C30.8686 10.1964 31.2501 11.2692 30.8281 12.1692ZM12.5191 24C10.8726 24 9.53838 25.3428 9.53838 27C9.53838 28.6572 10.8726 30 12.5191 30C14.1657 30 15.4999 28.6572 15.4999 27C15.4999 25.3428 14.1657 24 12.5191 24ZM23.2498 24C21.6032 24 20.2691 25.3428 20.2691 27C20.2691 28.6572 21.6032 30 23.2498 30C24.8964 30 26.2306 28.6572 26.2306 27C26.2306 25.3428 24.8964 24 23.2498 24ZM17.4827 14.2128C17.6019 14.31 17.7485 14.3568 17.8952 14.3568C18.0418 14.3568 18.1861 14.31 18.3077 14.2128C18.427 14.118 21.6796 10.9248 23.4537 8.268C23.5908 8.0616 23.6039 7.7976 23.4871 7.5792C23.3738 7.362 23.1473 7.2252 22.9028 7.2252H20.2488C20.2488 7.2252 19.9901 2.076 19.8208 1.8372C19.5751 1.4844 18.5605 1.2444 17.894 1.2444C17.2251 1.2444 16.1926 1.4844 15.9458 1.8372C15.7777 2.0748 15.5547 7.2252 15.5547 7.2252H12.8661C12.6205 7.2252 12.3951 7.362 12.2795 7.5792C12.1638 7.7976 12.1769 8.0628 12.3129 8.268C14.0882 10.926 17.3646 14.118 17.4827 14.2128Z" fill="#FCCB08"/>
</svg>
