<svg width="17" height="17" viewBox="0 0 17 17" fill="none" xmlns="http://www.w3.org/2000/svg">
<path d="M16.9058 6.95756C14.1708 12.75 13.2809 12.75 12.75 12.75H7.51923C5.68715 12.75 4.28335 11.6724 3.94269 10.0038C3.93223 9.95283 2.89654 4.86917 2.63173 3.44902C2.50162 2.75267 2.17077 2.28844 0.980769 2.28844C0.438731 2.28844 0 1.84971 0 1.30767C0 0.765635 0.438731 0.326904 0.980769 0.326904C2.95538 0.326904 4.22646 1.30767 4.55992 3.08875C4.82211 4.49387 5.85454 9.56052 5.865 9.61217C6.07358 10.6361 6.99092 10.7891 7.51923 10.7891H12.4917C13.0259 10.215 14.2434 8.00306 15.132 6.11998C15.3634 5.63025 15.9486 5.42167 16.4377 5.65183C16.9281 5.88264 17.1373 6.46717 16.9058 6.95756ZM6.86538 13.4038C5.96242 13.4038 5.23077 14.1355 5.23077 15.0384C5.23077 15.9414 5.96242 16.6731 6.86538 16.6731C7.76835 16.6731 8.5 15.9414 8.5 15.0384C8.5 14.1355 7.76835 13.4038 6.86538 13.4038ZM12.75 13.4038C11.847 13.4038 11.1154 14.1355 11.1154 15.0384C11.1154 15.9414 11.847 16.6731 12.75 16.6731C13.653 16.6731 14.3846 15.9414 14.3846 15.0384C14.3846 14.1355 13.653 13.4038 12.75 13.4038ZM9.58735 8.07106C9.65273 8.12402 9.73315 8.14952 9.81358 8.14952C9.894 8.14952 9.97311 8.12402 10.0398 8.07106C10.1052 8.0194 11.8889 6.27952 12.8618 4.8319C12.937 4.71944 12.9442 4.5756 12.8801 4.4566C12.818 4.33825 12.6938 4.26371 12.5597 4.26371H11.1043C11.1043 4.26371 10.9624 1.45806 10.8695 1.32794C10.7348 1.13571 10.1784 1.00494 9.81292 1.00494C9.44611 1.00494 8.87988 1.13571 8.74454 1.32794C8.65234 1.4574 8.53008 4.26371 8.53008 4.26371H7.05565C6.92096 4.26371 6.79738 4.33825 6.73396 4.4566C6.67054 4.5756 6.67773 4.7201 6.75227 4.8319C7.72584 6.28017 9.52261 8.0194 9.58735 8.07106Z" fill="#030104"/>
</svg>
