<svg width="22" height="22" viewBox="0 0 18 18" fill="none" xmlns="http://www.w3.org/2000/svg">
<g clip-path="url(#clip0)">
<path d="M9.99442 9.00078L17.7941 1.2011C18.0687 0.92649 18.0687 0.481272 17.7941 0.206702C17.5195 -0.0678685 17.0742 -0.0679036 16.7997 0.206702L8.99999 8.00639L1.20035 0.206702C0.925742 -0.0679036 0.480523 -0.0679036 0.205954 0.206702C-0.0686161 0.481307 -0.0686512 0.926525 0.205954 1.2011L8.0056 9.00075L0.205954 16.8004C-0.0686512 17.075 -0.0686512 17.5203 0.205954 17.7948C0.343239 17.9321 0.523203 18.0007 0.703168 18.0007C0.883132 18.0007 1.06306 17.9321 1.20038 17.7948L8.99999 9.99517L16.7996 17.7948C16.9369 17.9321 17.1169 18.0007 17.2969 18.0007C17.4768 18.0007 17.6567 17.9321 17.7941 17.7948C18.0687 17.5202 18.0687 17.075 17.7941 16.8004L9.99442 9.00078Z" fill="black"/>
</g>
<defs>
<clipPath id="clip0">
<rect width="22" height="22" fill="white"/>
</clipPath>
</defs>
</svg>
