<svg width="17" height="17" viewBox="0 0 17 17" fill="none" xmlns="http://www.w3.org/2000/svg">
<g clip-path="url(#clip0)">
<path d="M13.3001 6.44914C12.9881 6.1372 12.4823 6.13715 12.1703 6.44914L9.29874 9.32082L9.29869 0.798872C9.29869 0.357682 8.941 0 8.49981 0C8.05862 0 7.70094 0.357682 7.70094 0.798872L7.70099 9.32098L4.82921 6.44924C4.51728 6.13726 4.01143 6.13726 3.69944 6.44924C3.38746 6.76123 3.38746 7.26702 3.69944 7.57901L7.93496 11.8144C8.08477 11.9643 8.28795 12.0484 8.49981 12.0484C8.71167 12.0484 8.91491 11.9642 9.06472 11.8144L13.3001 7.5789C13.6121 7.26691 13.6121 6.76112 13.3001 6.44914Z" fill="black"/>
<path d="M16.2011 15.4023H0.798872C0.357682 15.4023 0 15.76 0 16.2012C0 16.6423 0.357682 17 0.798872 17H16.2011C16.6423 17 17 16.6423 17 16.2012C17 15.7599 16.6423 15.4023 16.2011 15.4023Z" fill="black"/>
</g>
</svg>
