<svg width="82" height="82" viewBox="0 0 82 82" fill="none" xmlns="http://www.w3.org/2000/svg">
<path d="M41 0.407837C18.3563 0.407837 0 18.6728 0 41.2037C0 63.7347 18.3563 81.9996 41 81.9996C63.6437 81.9996 82 63.7347 82 41.2037C81.976 18.6829 63.6337 0.431912 41 0.407837ZM58.2667 42.5036C57.9829 43.0701 57.5215 43.5294 56.9519 43.8118V43.8263L33.5234 55.4824C32.0765 56.2017 30.3176 55.6179 29.5945 54.1782C29.3889 53.769 29.2831 53.3172 29.2856 52.8598V29.5479C29.285 27.9384 30.5954 26.6333 32.2129 26.6324C32.6678 26.6323 33.1165 26.7374 33.5234 26.9398L56.9519 38.5958C58.3995 39.3136 58.9883 41.0632 58.2667 42.5036Z" fill="white"/>
</svg>
