<svg width="34" height="34" viewBox="0 0 34 34" fill="none" xmlns="http://www.w3.org/2000/svg">
<rect x="10" y="10" width="15" height="15" fill="white"/>
<path d="M17 0C7.61116 0 0 7.61116 0 17C0 26.3888 7.61116 34 17 34C26.3888 34 34 26.3888 34 17C33.99 7.61536 26.3847 0.0100321 17 0ZM24.1594 17.5417C24.0417 17.7777 23.8504 17.9691 23.6142 18.0868V18.0929L13.8999 22.95C13.3 23.2498 12.5707 23.0065 12.2709 22.4066C12.1857 22.236 12.1418 22.0478 12.1428 21.8572V12.1429C12.1425 11.4722 12.6859 10.9284 13.3566 10.928C13.5452 10.9279 13.7312 10.9718 13.8999 11.0561L23.6142 15.9133C24.2144 16.2124 24.4585 16.9414 24.1594 17.5417Z" fill="white"/>
<path d="M14.0935 9.5H11.5365C10.9642 9.5 10.5 9.89568 10.5 10.3836V23.6164C10.5 24.1043 10.9642 24.5 11.5365 24.5H14.0935C14.6658 24.5 15.13 24.1043 15.13 23.6164V10.3836C15.13 9.89568 14.6659 9.5 14.0935 9.5Z" fill="black"/>
<path d="M22.4685 9.5H19.9115C19.3392 9.5 18.875 9.89568 18.875 10.3836V23.6164C18.875 24.1043 19.3392 24.5 19.9115 24.5H22.4685C23.0408 24.5 23.505 24.1043 23.505 23.6164V10.3836C23.505 9.89568 23.0408 9.5 22.4685 9.5Z" fill="black"/>
</svg>
