<svg width="25" height="25" viewBox="0 0 25 25" fill="none" xmlns="http://www.w3.org/2000/svg">
<path d="M8.91037 7.59188L11.3293 5.17299V17.9688C11.3293 18.2796 11.4527 18.5777 11.6725 18.7975C11.8923 19.0172 12.1903 19.1407 12.5011 19.1407C12.8119 19.1407 13.11 19.0172 13.3298 18.7975C13.5495 18.5777 13.673 18.2796 13.673 17.9688V5.17299L16.0919 7.59188C16.2006 7.70119 16.3298 7.78797 16.4721 7.84725C16.6144 7.90654 16.767 7.93716 16.9212 7.93737C17.0754 7.93758 17.228 7.90737 17.3705 7.84848C17.513 7.78958 17.6424 7.70315 17.7514 7.59414C17.8604 7.48513 17.9469 7.35569 18.0058 7.21322C18.0647 7.07076 18.0949 6.91807 18.0947 6.76391C18.0945 6.60975 18.0638 6.45714 18.0045 6.31484C17.9453 6.17253 17.8585 6.04332 17.7492 5.93461L13.3298 1.51518C13.221 1.40635 13.0918 1.32003 12.9496 1.26113C12.8074 1.20223 12.655 1.17192 12.5011 1.17192C12.3472 1.17192 12.1948 1.20223 12.0527 1.26113C11.9105 1.32003 11.7813 1.40635 11.6725 1.51518L7.2531 5.93461C7.14379 6.04332 7.05701 6.17253 6.99773 6.31484C6.93844 6.45714 6.90782 6.60975 6.90761 6.76391C6.9074 6.91807 6.93761 7.07076 6.99651 7.21322C7.05541 7.35569 7.14183 7.48513 7.25084 7.59414C7.35985 7.70315 7.4893 7.78958 7.63176 7.84848C7.77423 7.90737 7.92691 7.93758 8.08108 7.93737C8.23524 7.93716 8.38784 7.90654 8.53015 7.84725C8.67245 7.78797 8.80166 7.70119 8.91037 7.59188Z" fill="white"/>
<path d="M22.6562 11.3281C22.3454 11.3281 22.0474 11.4516 21.8276 11.6714C21.6078 11.8911 21.4844 12.1892 21.4844 12.5V21.4844H3.51562V12.5C3.51562 12.1892 3.39216 11.8911 3.17239 11.6714C2.95262 11.4516 2.65455 11.3281 2.34375 11.3281C2.03295 11.3281 1.73488 11.4516 1.51511 11.6714C1.29534 11.8911 1.17188 12.1892 1.17188 12.5V21.875C1.17188 22.393 1.37765 22.8898 1.74393 23.2561C2.11021 23.6223 2.607 23.8281 3.125 23.8281H21.875C22.393 23.8281 22.8898 23.6223 23.2561 23.2561C23.6224 22.8898 23.8281 22.393 23.8281 21.875V12.5C23.8281 12.1892 23.7047 11.8911 23.4849 11.6714C23.2651 11.4516 22.9671 11.3281 22.6562 11.3281Z" fill="white"/>
</svg>
