<svg width="42" height="42" viewBox="0 0 42 42" fill="none" xmlns="http://www.w3.org/2000/svg">
<path d="M31.8941 20.4218L16.4941 9.9218C16.2792 9.7762 16.002 9.7601 15.7724 9.8812C15.5435 10.0023 15.4 10.2403 15.4 10.5V31.5C15.4 31.7597 15.5435 31.9977 15.7731 32.1188C15.8753 32.1734 15.988 32.2 16.1 32.2C16.2379 32.2 16.3758 32.1587 16.4941 32.0782L31.8941 21.5782C32.0852 21.448 32.2 21.2317 32.2 21C32.2 20.7683 32.0852 20.552 31.8941 20.4218ZM16.8 30.1749V11.8251L30.2575 21L16.8 30.1749Z" fill="white"/>
<path d="M21 0C9.4206 0 0 9.4206 0 21C0 32.5794 9.4206 42 21 42C32.5794 42 42 32.5794 42 21C42 9.4206 32.5794 0 21 0ZM21 40.6C10.1927 40.6 1.4 31.8073 1.4 21C1.4 10.1927 10.1927 1.4 21 1.4C31.8073 1.4 40.6 10.1927 40.6 21C40.6 31.8073 31.8073 40.6 21 40.6Z" fill="white"/>
</svg>
